<?xml version="1.0" encoding="utf-8"?>
<!-- Generator: Adobe Illustrator 19.1.0, SVG Export Plug-In . SVG Version: 6.00 Build 0)  -->
<svg version="1.1" id="Layer_1" xmlns="http://www.w3.org/2000/svg" xmlns:xlink="http://www.w3.org/1999/xlink" x="0px" y="0px"
	 viewBox="0 0 1659 1666.7" enable-background="new 0 0 1659 1666.7" xml:space="preserve">
<g>
	<circle fill="#1E8BC3" cx="837.5" cy="317.5" r="232.6"/>
	<path fill="#1E8BC3" d="M1020.5,589.9c-7,0-185.5,0-185.5,0s-178.6,0-185.5,0s-208.7,88.6-208.7,462.9c0,0,0,24.6,32.5,24.6
		c32.5,0,361.8,0,361.8,0s329.3,0,361.8,0c32.5,0,32.5-24.6,32.5-24.6C1229.3,678.6,1027.5,589.9,1020.5,589.9z M678.4,975.2h-38.3
		v-40.7h38.3V975.2z M678.4,878h-38.3v-40.7h38.3V878z M678.4,780.8h-38.3v-40.7h38.3V780.8z M1035.8,975.2H710.2v-40.7h325.7V975.2
		z M1035.8,878H710.2v-40.7h325.7V878z M1035.8,780.8H710.2v-40.7h325.7V780.8z"/>
	<path fill-rule="evenodd" clip-rule="evenodd" fill="#FF6500" d="M1095.3,202.8c15.6,35.1,24.4,73.8,24.4,114.7
		c0,32.3-5.5,63.4-15.5,92.3c149.8,92.6,249.7,258.7,249.7,448.3c0,290.6-234.7,526.2-524.3,526.2S305.2,1148.6,305.2,858
		c0-195.1,105.8-365.3,262.9-456.2c-8.3-26.6-12.8-55-12.8-84.3c0-43.8,10-85.3,27.8-122.3C315.1,295.4,124.2,554.4,124.2,858
		c0,390.6,315.8,707.2,705.3,707.2s705.3-316.6,705.3-707.2C1534.8,561.7,1353.1,308,1095.3,202.8z"/>
	<rect x="441" y="1052.7" fill="#1E8BC3" width="788.2" height="24.7"/>
	<path fill="#1E8BC3" d="M441,1075.5c79.6,135.4,226.3,226.2,394.1,226.2s314.6-90.8,394.1-226.2H441z"/>
</g>
</svg>
